<svg xmlns="http://www.w3.org/2000/svg" xmlns:xlink="http://www.w3.org/1999/xlink" width="500" zoomAndPan="magnify" viewBox="0 0 375 374.999991" height="500" preserveAspectRatio="xMidYMid meet" version="1.0"><defs><g/></defs><g fill="rgb(100%, 100%, 100%)" fill-opacity="1"><g transform="translate(101.159764, 202.874987)"><g><path d="M 9.335938 -6.195312 L 9.335938 -24.28125 L 11.355469 -24.28125 C 16.5625 -24.28125 20.0625 -20.332031 20.0625 -15.257812 C 20.0625 -10.1875 16.515625 -6.195312 11.355469 -6.195312 Z M 2.691406 -30.519531 L 2.691406 0 L 11.757812 0 C 20.421875 0 26.929688 -6.640625 26.929688 -15.257812 C 26.929688 -23.875 20.375 -30.519531 11.757812 -30.519531 Z M 2.691406 -30.519531 "/></g></g></g><g fill="rgb(100%, 100%, 100%)" fill-opacity="1"><g transform="translate(150.299226, 202.874987)"><g><path d="M 30.699219 -30.519531 L 23.425781 -30.519531 L 17.097656 -13.375 L 15.4375 -8.570312 L 13.777344 -13.375 L 7.496094 -30.519531 L 0.222656 -30.519531 L 12.566406 0 L 18.355469 0 Z M 30.699219 -30.519531 "/></g></g></g><g fill="rgb(100%, 100%, 100%)" fill-opacity="1"><g transform="translate(201.861722, 202.874987)"><g><path d="M 20.375 -6.105469 L 9.425781 -6.105469 L 9.425781 -12.253906 L 19.925781 -12.253906 L 19.925781 -18.355469 L 9.425781 -18.355469 L 9.425781 -24.414062 L 20.375 -24.414062 L 20.375 -30.519531 L 2.691406 -30.519531 L 2.691406 0 L 20.375 0 Z M 20.375 -6.105469 "/></g></g></g><g fill="rgb(100%, 100%, 100%)" fill-opacity="1"><g transform="translate(245.571787, 202.874987)"><g><path d="M 14.542969 -4.757812 C 11.21875 -4.757812 8.347656 -6.417969 8.167969 -10.054688 L 1.347656 -10.054688 C 1.390625 -2.601562 7.539062 0.71875 14.273438 0.71875 C 20.511719 0.71875 26.929688 -1.929688 26.929688 -9.109375 C 26.929688 -20.734375 9.289062 -16.828125 9.289062 -22.261719 C 9.289062 -24.550781 11.9375 -25.445312 13.824219 -25.445312 C 17.1875 -25.445312 19.027344 -24.414062 19.386719 -21.226562 L 25.894531 -21.226562 C 25.671875 -28.183594 20.015625 -30.96875 13.734375 -30.96875 C 8.167969 -30.96875 2.332031 -28.003906 2.332031 -21.722656 C 2.332031 -10.457031 19.972656 -14.273438 19.972656 -8.347656 C 19.972656 -5.609375 16.652344 -4.757812 14.542969 -4.757812 Z M 14.542969 -4.757812 "/></g></g></g></svg>