<svg xmlns="http://www.w3.org/2000/svg" xmlns:xlink="http://www.w3.org/1999/xlink" width="500" zoomAndPan="magnify" viewBox="0 0 375 374.999991" height="500" preserveAspectRatio="xMidYMid meet" version="1.0"><defs><g/><clipPath id="id1"><path d="M 9.738281 223.332031 L 366.738281 223.332031 L 366.738281 374.832031 L 9.738281 374.832031 Z M 9.738281 223.332031 " clip-rule="nonzero"/></clipPath><clipPath id="id2"><path d="M 9.738281 4.296875 L 365.988281 4.296875 L 365.988281 145.296875 L 9.738281 145.296875 Z M 9.738281 4.296875 " clip-rule="nonzero"/></clipPath></defs><g clip-path="url(#id1)"><path fill="rgb(100%, 100%, 100%)" d="M 188.238281 375.015625 C 89.625 375.015625 9.738281 294.582031 9.738281 196.515625 C 9.738281 98.449219 89.625 18.015625 188.238281 18.015625 C 286.855469 18.015625 366.738281 97.898438 366.738281 196.515625 C 366.738281 295.132812 286.304688 375.015625 188.238281 375.015625 Z M 188.238281 29.035156 C 95.683594 29.035156 20.757812 103.960938 20.757812 196.515625 C 20.757812 289.070312 95.683594 363.996094 188.238281 363.996094 C 280.796875 363.996094 355.722656 289.070312 355.722656 196.515625 C 355.722656 103.960938 280.246094 29.035156 188.238281 29.035156 Z M 188.238281 29.035156 " fill-opacity="1" fill-rule="nonzero"/></g><g clip-path="url(#id2)"><path fill="rgb(100%, 100%, 100%)" d="M 187.863281 360.546875 C 89.457031 360.546875 9.738281 280.28125 9.738281 182.421875 C 9.738281 84.5625 89.457031 4.296875 187.863281 4.296875 C 286.273438 4.296875 365.988281 84.015625 365.988281 182.421875 C 365.988281 280.832031 285.722656 360.546875 187.863281 360.546875 Z M 187.863281 15.292969 C 95.503906 15.292969 20.734375 90.0625 20.734375 182.421875 C 20.734375 274.785156 95.503906 349.550781 187.863281 349.550781 C 280.226562 349.550781 354.996094 274.785156 354.996094 182.421875 C 354.996094 90.0625 279.675781 15.292969 187.863281 15.292969 Z M 187.863281 15.292969 " fill-opacity="1" fill-rule="nonzero"/></g><g fill="rgb(100%, 100%, 100%)" fill-opacity="1"><g transform="translate(-3.450778, 202.874987)"><g><path d="M 17.328125 -13.882812 L 23.488281 -26.148438 L 29.59375 -13.882812 L 37.421875 -13.882812 L 23.488281 -41.753906 L 2.609375 0 L 10.335938 0 L 13.882812 -6.992188 Z M 40.867188 -6.941406 L 33.140625 -6.941406 L 36.585938 0 L 44.363281 0 Z M 40.867188 -6.941406 "/></g></g></g><g fill="rgb(100%, 100%, 100%)" fill-opacity="1"><g transform="translate(350.875967, 202.874987)"><g><path d="M 0 -41.753906 L 0 0 L 6.992188 0 L 6.992188 -34.761719 L 20.878906 -34.761719 L 20.878906 -41.753906 Z M 0 -41.753906 "/></g></g></g></svg>